# xmcd
#
# Track frame offsets: 
#        182
#        11162
#        28430
#        43545
#        56407
#        70620
#        87372
#        101502
#        118665
#        138840
#        154855
#        169495
#        185897
#        202517
#        212547
#        227370
#        251182
#        264497
#        281790
#        307195
#
# Disc length: 4258 seconds
#
# Revision: 6
# Processed by: cddbd v1.5.2PL0 Copyright (c) Steve Scherf et al.
# Submitted via: ExactAudioCopy v1.3
#
DISCID=2110a014
DTITLE=Ray Stevens - Best Of
DYEAR=1997
DGENRE=Comedy
TTITLE0=Jeremiah Peabody's Poly Unsaturated Quick Dissolving Fast Acti
TTITLE0=ng Pleasant Tasting Green And Purple Pills
TTITLE1=Ahab The Arab
TTITLE2=Santa Claus Is Watching You
TTITLE3=Harry The Hairy Ape
TTITLE4=Unwind
TTITLE5=Mr. Businessman
TTITLE6=Gitarzan
TTITLE7=Along Came Jones
TTITLE8=Sunday Mornin' Comin' Down
TTITLE9=Everything Is Beautiful
TTITLE10=America Communicate With Me
TTITLE11=Sunset Strip
TTITLE12=Bridget The Midget (The Queen Of The Blues)
TTITLE13=Turn Your Radio On
TTITLE14=The Streak
TTITLE15=Moonlight Special
TTITLE16=Misty
TTITLE17=I Need Your Help Barry Manilow
TTITLE18=Shriner's Convention
TTITLE19=Henhouse Five Plus Too - In The Mood
EXTD=YEAR: 1997
EXTT0=
EXTT1=
EXTT2=
EXTT3=
EXTT4=
EXTT5=
EXTT6=
EXTT7=
EXTT8=
EXTT9=
EXTT10=
EXTT11=
EXTT12=
EXTT13=
EXTT14=
EXTT15=
EXTT16=
EXTT17=
EXTT18=
EXTT19=
PLAYORDER=
